<svg version="1.2" xmlns="http://www.w3.org/2000/svg" viewBox="0 0 1920 300" width="1920" height="300"><style>.a{fill:#3b291f}.b{opacity:.3;mix-blend-mode:multiply;fill:#441d00}.c{fill:#2a6914}.d{fill:#276113}.e{fill:#327a17}.f{fill:#3c941c}.g{fill:#3d8c20}.h{fill:#e8692e}.i{fill:#fa7132}.j{fill:#e8580b}.k{fill:#b3b3b3}.l{fill:#e6e6e6}.m{fill:#a52100}.n{fill:#c7614a}.o{fill:#ebbe99}.p{fill:#608500}.q{fill:#93cc00}.r{fill:#dfe600}.s{fill:#c7e600}.t{fill:#7f3600}.u{fill:#d46600}.v{fill:#ff841d}.w{fill:#b82921}.x{fill:#c92d24}.y{fill:#516a30}.z{fill:#3d9900}.A{fill:#de5d54}</style><path class="a" d="m0 77.9h1920v222h-1920z"/><path class="b" d="m805.6 160.3c-3.1 1.5-6.8 0.3-8.3-2.8-1.5-3-0.3-6.7 2.8-8.3 3-1.5 6.7-0.3 8.3 2.8 1.5 3.1 0.3 6.8-2.8 8.3z"/><path class="b" d="m782.3 176.4c-3.2 1.3-6.8-0.2-8.1-3.3-1.3-3.2 0.2-6.8 3.3-8.1 3.2-1.3 6.8 0.2 8.1 3.3 1.3 3.2-0.2 6.8-3.3 8.1z"/><path class="b" d="m1393.6 146c-1.5 3.1-5.2 4.3-8.2 2.8-3.1-1.5-4.4-5.2-2.9-8.2 1.5-3.1 5.2-4.4 8.3-2.9 3.1 1.5 4.3 5.2 2.8 8.3z"/><path class="b" d="m794.3 127.5c-3.2 1.3-4.7 4.9-3.4 8.1 1.3 3.1 5 4.6 8.1 3.3 3.2-1.3 4.7-4.9 3.4-8.1-1.3-3.1-4.9-4.6-8.1-3.3z"/><path class="b" d="m673.1 161.3c-0.1-1.2-0.4-2.3-0.7-3.3-0.7-2.2-1.4-4.2-2.1-6.3-0.5-1.4-1.2-2.7-1.7-4.1-0.6-1.4-1.2-2.7-1.5-4.1-0.3-1.1-0.3-2.2 0-3.3q0.2-0.7 0.5-1.3c0.1-0.3 0.5-0.9 0.6-1.2 0-0.2-0.2-0.3-0.4-0.3 0.4-1.9 0.2-4-0.8-5.9l-0.1-0.1-0.1-0.2-0.1-0.2q-0.1-0.1-0.2-0.3-0.2-0.3-0.4-0.6-0.5-0.6-0.9-1.2-0.8-1.1-1.6-2.1-1.8-2.1-3.6-4c-2.4-2.5-5-4.8-7.8-6.9-5.4-4.2-11.5-7.5-17.8-9.9-1.6-0.6-3.2-1.1-4.8-1.6-1.6-0.4-3.2-0.9-4.8-1.2-1.7-0.4-3.3-0.6-4.9-0.8-0.8-0.2-1.7-0.2-2.5-0.3-0.8-0.1-1.6-0.2-2.4-0.2q-0.9-0.1-1.8-0.1-0.1 0-0.2 0-0.9-0.1-1.8-0.1h-0.1q-1.9 0-3.8 0.1-3.8 0.1-7.5 0.6-1.5 0.2-3 0.4-0.6 0.1-1.1 0.2c-0.9 0.2-1.6 1-1.7 1.9q-0.1 0.1-0.1 0.3c0 1.1 1 2.1 2.2 2.1 6.1 0.1 12 0.8 17.7 2.2 0.7 0.1 1.4 0.4 2.1 0.6 0.7 0.2 1.4 0.4 2.1 0.6 1.4 0.5 2.7 1 4.1 1.5 1.3 0.6 2.6 1.2 3.9 1.8 1.2 0.7 2.5 1.3 3.7 2.1 4.8 2.9 9.2 6.5 12.8 10.6q2.8 3 5 6.4 1.2 1.7 2.1 3.4 0.5 0.9 0.9 1.8 0.2 0.4 0.4 0.8 0.1 0.2 0.1 0.4 0.1 0.1 0.1 0.1v0.1q0 0 0 0c1.5 2.9 4.3 4.6 7.3 4.8q0.2 0.1 0.3 0.1 0.4 0.2 0.7 0.2c1.8 0.3 3.3 0.7 4.6 2.1 1.5 1.8 2.7 3.9 3.9 5.9 1.1 1.9 2 3.8 2.7 5.7 0.3 1 0.5 2 0.6 3q0 0.4 0 0.7 0 0.4 0 0.7c-0.1 0.4-0.3 0.7-0.4 0.9q-0.2 0.1-0.3 0.3c-0.4 0.5-0.2 1.3 0.4 1.7 0.5 0.2 1 0.2 1.4-0.1q0.2-0.2 0.3-0.4l0.1-0.1c0.4-0.7 0.5-1.5 0.6-2.1q0-0.5 0-0.9c-0.1-0.3-0.1-0.6-0.1-0.9z"/><path class="b" d="m737.9 218v-0.1q-0.1-8.9-0.4-17.3v-0.1q-0.3-11-0.8-20.9v-0.1c-0.6-13.4-1.5-25.4-2.5-36.1v-0.1q0 0 0 0-0.5-5.6-1-10.8v-0.1q0 0-0.1 0c-1.2-11.7-2.6-21.7-3.9-30v-0.1q0 0-0.1-0.1c-3.6-22.8-7.1-32.9-7.1-32.9h-0.1c-0.9-3.2-2.5-6.2-4.6-8.6h-37.8c-4.4 5.2-6.5 12.2-5.4 19.5 0 0 0.8 6.3 4.1 19.2q0 0-0.1 0l0.1 0.1c1.4 5.3 3.1 11.6 5.4 19q0 0 0 0l0.1 0.1q0 0.3 0.1 0.6 0.4 1.2 0.8 2.4 1.9 6 4.2 12.9 0 0 0 0l0.1 0.1q2.2 6.4 4.8 13.6 0 0 0 0.1h0.1q1.7 4.9 3.7 10.1 0 0 0 0l0.1 0.1q3.4 9.1 7.6 19.2 0 0 0 0l0.1 0.2q3.4 8.2 7.3 17.2l0.1 0.2q0 0 0 0 0.2 0.5 0.4 1c5 11.5 10.6 23.8 16.9 36.9q1.8 3.8 3.6 7.6c0.4 0.8 1.1 1.2 1.8 1.2 1.2 0.2 2.6-0.7 2.6-2.2q0-11.3-0.1-21.8z"/><path class="b" d="m1361.8 131.7c2.9 1.8 6.7 0.8 8.5-2.2 1.7-2.9 0.7-6.7-2.2-8.4-3-1.8-6.8-0.8-8.5 2.2-1.8 2.9-0.8 6.7 2.2 8.4z"/><path class="b" d="m1359.5 89.9c-3-1.7-6.8-0.7-8.5 2.2-1.7 3-0.8 6.8 2.2 8.5 3 1.8 6.8 0.8 8.5-2.2 1.7-2.9 0.7-6.7-2.2-8.5z"/><path class="b" d="m1354.5 147.6c-3-1.8-6.8-0.8-8.5 2.2-1.8 2.9-0.8 6.7 2.2 8.4 2.9 1.8 6.7 0.8 8.5-2.2 1.7-2.9 0.7-6.7-2.2-8.4z"/><path class="b" d="m909.8 63.4l-69.3 28.8c-10.6 24.9-0.7 54.3 23.6 67.6 25.9 14.1 58.3 4.6 72.5-21.3 14.1-25.9 4.6-58.4-21.3-72.5q-2.7-1.5-5.5-2.6z"/><path class="b" d="m1032 60.6c-10.3 13.3-16.4 29.9-16.4 48 0 43.4 35.1 78.5 78.5 78.5 43.3 0 78.4-35.1 78.4-78.5 0-18-6.1-34.7-16.3-47.9z"/><path class="b" d="m1330.2 153.4c-16.4 24.6-49.6 31.2-74.1 14.8-24.6-16.4-31.2-49.5-14.8-74.1 16.4-24.6 49.5-31.2 74.1-14.8 24.6 16.5 31.2 49.6 14.8 74.1z"/><path class="c" d="m668.4 2.3l9-2.3 13.9 53.3-9 2.4z"/><path class="d" d="m682.3 4.3l9.3-0.9 5.5 54.9-9.3 0.9z"/><path class="e" d="m680.4 58.6c-6.1-17.5-13.3-37-14.8-39.3q0.1 0.1 0.1 0.1l5.7-4.5c2.3 3 11.9 29.9 15.9 41.4z"/><path class="f" d="m676.5 8.4l7.1-1.3 9.5 48.6-7.1 1.4z"/><path class="g" d="m698.2 53.1l-7.2 0.4c-0.9-17.9-2.2-48.6-0.4-52.9l6.7 2.8c0 0 0 0 0-0.1-0.9 3.2-0.2 27.9 0.9 49.9z"/><path class="h" d="m733.9 235.6c0 1.6-1.4 2.5-2.6 2.3-0.7-0.1-1.4-0.5-1.8-1.3q-1.8-3.8-3.6-7.5c-6.3-13.2-11.9-25.5-16.9-36.9-13.7-31.5-22.7-56.3-28.5-74.7q-0.4-1.3-0.8-2.4c-8.2-26.4-9.7-39-9.7-39-2.1-13.4 7-25.9 20.3-28.1q0.1 0 0.2 0c12.3-1.9 23.8 5.6 27.3 17.1h0.1c0 0 16.3 48.2 16 170.5z"/><path class="i" d="m731.3 237.9c-0.7-0.1-1.4-0.5-1.8-1.3q-1.8-3.8-3.6-7.5c-6.3-13.2-11.9-25.5-16.9-36.9-13-30.6-23.1-57.6-28.5-74.7q-0.4-1.3-0.8-2.4c-8.2-26.4-9.7-39-9.7-39-2.1-13.4 7-25.9 20.3-28.1 9.1 1.5 16.8 8.1 19.5 17.1h0.1c0 0 20.7 57.7 21.4 172.8z"/><path class="j" d="m670.9 73.5c1.1-1 2.4-1.8 3.8-2.5q2-1.1 4.1-2c2.8-1.2 5.7-2.1 8.6-2.9 2.9-0.8 5.9-1.6 8.9-1.9 1.5-0.1 3-0.2 4.6-0.2q2.2 0 4.5 0.2v0.2c-1.4 0.4-2.9 0.7-4.4 1q-2.2 0.5-4.4 0.9c-2.9 0.6-5.9 0.8-8.8 1.4-2.9 0.6-5.8 1.3-8.7 2.3-2.8 0.9-5.6 2-8.1 3.6 0 0-0.1-0.1-0.1-0.1z"/><path class="j" d="m681.2 72.8c2.6-1.3 5.3-2.2 8.1-3.1q4.1-1.3 8.3-2.2c2.8-0.6 5.7-1.3 8.6-1.4 2.8-0.1 5.8 0 8.6 0.5v0.3c-2.8 0.6-5.6 0.9-8.4 1.3-2.8 0.4-5.7 0.5-8.5 0.9q-4.2 0.6-8.4 1.6-4.1 0.9-8.2 2.2l-0.1-0.1z"/><path class="j" d="m675.4 84c1.8-1.2 3.8-2.2 5.8-3.1q3.1-1.3 6.3-2.3c2.1-0.6 4.3-1.3 6.5-1.4 2.2-0.2 4.5-0.2 6.7 0.3v0.2c-1.1 0.3-2.2 0.6-3.2 0.8-1.1 0.3-2.2 0.5-3.2 0.7q-1.6 0.3-3.2 0.5c-1.1 0.2-2.1 0.4-3.2 0.5q-3.2 0.7-6.3 1.7c-2.1 0.6-4.1 1.3-6.1 2.3z"/><path class="j" d="m674 95.3c0.8-0.9 1.7-1.7 2.7-2.4q1.4-1.1 3-2.1c2.1-1.2 4.3-2.3 6.5-3.3 2.2-0.9 4.5-1.9 6.9-2.4q1.7-0.3 3.6-0.6c1.2 0 2.4-0.1 3.6 0l0.1 0.2c-1.2 0.5-2.3 0.9-3.4 1.3-1.1 0.4-2.3 0.7-3.4 1.1-1.1 0.4-2.3 0.7-3.4 1l-1.7 0.5-1.7 0.5c-2.3 0.7-4.5 1.6-6.6 2.6-2.1 1.1-4.2 2.2-6.1 3.8l-0.1-0.2z"/><path class="j" d="m683 97.5c1.5-1.1 3.2-2 4.9-2.9q2.6-1.3 5.3-2.3c1.8-0.7 3.6-1.4 5.5-1.7 1.9-0.3 3.9-0.4 5.8-0.1v0.2c-1.8 0.9-3.6 1.4-5.4 1.9-1.7 0.6-3.6 0.8-5.4 1.3q-2.7 0.7-5.4 1.6-2.7 1-5.3 2.1l-0.1-0.1z"/><path class="j" d="m679.5 114.4c2-1.6 4.3-3 6.5-4.4q3.5-1.9 7.1-3.4c2.5-1.1 4.9-2.2 7.5-2.7 2.6-0.6 5.2-0.9 7.9-0.9v0.2c-1.2 0.6-2.4 1-3.7 1.4-1.2 0.5-2.4 0.8-3.7 1.3-2.4 0.8-4.9 1.4-7.4 2.2q-3.7 1.2-7.2 2.9c-2.4 1-4.7 2.2-6.9 3.6l-0.1-0.2z"/><path class="j" d="m684.7 130.3c2.7-2.2 5.7-4 8.8-5.5 3.2-1.5 6.4-2.8 9.8-3.8 3.4-0.9 6.8-1.9 10.3-2 1.8-0.2 3.5-0.1 5.3 0 1.7 0.1 3.5 0.4 5.2 0.7v0.2c-0.9 0.1-1.8 0.2-2.6 0.3-0.9 0.1-1.7 0.1-2.6 0.2-1.7 0.3-3.4 0.4-5.1 0.7l-2.5 0.3-2.6 0.3q-1.2 0.2-2.5 0.4c-0.8 0.2-1.7 0.3-2.5 0.5q-5 1.2-9.8 3.1c-3.1 1.3-6.3 2.8-9.1 4.8l-0.1-0.2z"/><path class="j" d="m690.8 136c1.2-1.2 2.6-2.1 4-2.9q2.2-1.3 4.6-2.2c1.6-0.6 3.1-1.3 4.8-1.4 1.7-0.2 3.4-0.1 5.1 0.3v0.2c-0.8 0.4-1.6 0.6-2.3 0.9-0.8 0.2-1.6 0.4-2.4 0.6-1.5 0.4-3.1 0.6-4.7 1q-2.4 0.6-4.6 1.5-2.3 0.9-4.4 2.1l-0.1-0.1z"/><path class="j" d="m689.6 144.1c1.6-1.6 3.4-2.8 5.4-4 1.9-1.1 3.9-2 6-2.9 2.1-0.8 4.2-1.7 6.4-2.1 2.2-0.3 4.5-0.5 6.7-0.3l0.1 0.2c-1.1 0.5-2.1 0.8-3.2 1.2-1 0.3-2.1 0.6-3.1 0.9-1.1 0.4-2.1 0.6-3.2 0.9-1 0.2-2.1 0.5-3.1 0.8-2.1 0.6-4.2 1.3-6.2 2.3-1.9 0.8-3.9 1.9-5.7 3.2 0 0-0.1-0.2-0.1-0.2z"/><path class="j" d="m693.4 154.3c2.6-1.9 5.4-3.4 8.3-4.8 1.5-0.6 3-1.4 4.6-1.6 1.6-0.3 3.3-0.3 4.9 0.2v0.2c-1.5 0.6-2.9 1.1-4.4 1.6-1.5 0.5-3 0.7-4.5 1.2q-2.2 0.6-4.4 1.5-2.2 0.9-4.4 1.8c0 0-0.1-0.1-0.1-0.1z"/><path class="j" d="m700.7 163.8c1.5-0.8 3.1-1.5 4.7-2.2q2.5-1 4.9-1.8c1.7-0.6 3.3-1.2 5.1-1.4 1.7-0.2 3.5-0.2 5.3 0.2v0.2c-1.7 0.7-3.3 1.2-4.9 1.6-1.6 0.5-3.4 0.6-5 1q-2.5 0.5-5 1.2-2.5 0.7-5 1.4l-0.1-0.2z"/><path class="j" d="m701.1 173.6c1.4-0.9 2.8-1.6 4.2-2.4q2.1-1.1 4.4-2c1.5-0.6 3-1.3 4.6-1.6 1.6-0.2 3.3-0.3 4.9 0.1l0.1 0.2c-1.6 0.8-3 1.3-4.5 1.8-1.5 0.5-3.1 0.6-4.6 1.1q-2.3 0.6-4.5 1.4c-1.5 0.5-3 1-4.5 1.6l-0.1-0.2z"/><path class="j" d="m708.5 191q3.6-1.9 7.6-3.3c1.3-0.5 2.6-1.1 4-1.2 1.4-0.2 2.8-0.2 4.2 0.4v0.2c-1.3 0.6-2.6 1-3.8 1.4-1.3 0.4-2.7 0.5-4 0.8q-2 0.4-4 0.9c-1.3 0.3-2.6 0.6-3.9 1z"/><path class="j" d="m715.6 205.9c1.1-0.6 2.2-1.1 3.3-1.6q1.7-0.7 3.4-1.3c1.1-0.4 2.3-1 3.5-1.1 1.3 0 2.5 0 3.8 0.5v0.2c-1.2 0.7-2.3 1-3.4 1.4-1.1 0.3-2.3 0.3-3.5 0.6-2.3 0.4-4.7 0.9-7 1.5l-0.1-0.2z"/><path class="j" d="m725 98.3c-1.7-0.2-3.4-0.2-5.1-0.1q-2.5 0.1-5.1 0.4c-1.7 0.2-3.3 0.6-5 0.7-0.9 0-1.7 0.1-2.6 0q-1.3 0-2.6-0.2l-0.1-0.2c1.6-0.8 3.3-1.3 5-1.7 1.7-0.3 3.5-0.2 5.2-0.2q2.6 0 5.2 0.2c1.8 0.2 3.5 0.4 5.2 0.9l-0.1 0.2z"/><path class="j" d="m722.6 110.5q-3.6-0.1-7.2 0.4-3.6 0.4-7.1 1.1c-2.4 0.5-4.7 1.2-7 1.7-1.2 0.2-2.4 0.5-3.6 0.7-1.2 0.2-2.4 0.4-3.6 0.5l-0.1-0.2c2.1-1.3 4.4-2.3 6.8-3 2.3-0.8 4.8-1 7.2-1.3q3.7-0.5 7.3-0.5c2.5 0 4.9 0 7.3 0.3z"/><path class="j" d="m729 128.5c-1.6 0-3.2 0.1-4.8 0.2-0.8 0-1.6 0.3-2.4 0.2-0.8-0.1-1.5-0.2-2.4-0.6v-0.2c0.7-0.7 1.5-1.1 2.3-1.2 0.9-0.2 1.7 0 2.5 0.1q1.3 0.2 2.5 0.5c0.8 0.3 1.6 0.5 2.3 0.8 0 0 0 0.2 0 0.2z"/><path class="j" d="m730.1 139.3q-2.8 0.3-5.6 0.8-2.8 0.4-5.5 0.9c-1.9 0.4-3.7 1-5.5 1.2-1.8 0.3-3.7 0.6-5.6 0.6l-0.1-0.2c1.6-1.1 3.4-1.9 5.3-2.4 1.8-0.6 3.7-0.6 5.6-0.8q2.9-0.3 5.7-0.4c1.9 0 3.8 0 5.7 0.1 0 0 0 0.2 0 0.2z"/><path class="j" d="m728.7 149.6q-1.9 0.3-3.8 0.6-1.9 0.4-3.8 0.8c-1.3 0.3-2.5 0.8-3.7 0.9-1.3 0.1-2.6 0.3-4 0.1l-0.1-0.2c1.1-0.9 2.4-1.5 3.6-1.9 1.3-0.4 2.6-0.4 3.9-0.5 2.6-0.2 5.3-0.3 7.9 0 0 0 0 0.2 0 0.2z"/><path class="j" d="m732.6 175.6q-2.1 0-4.1 0.2-1.9 0.2-3.9 0.5c-1.3 0.2-2.6 0.6-3.9 0.7-1.3 0-2.7 0.1-4.1-0.2l-0.1-0.2c1.2-0.8 2.5-1.3 3.9-1.7 1.3-0.4 2.7-0.2 4-0.3 2.8 0 5.5 0.2 8.2 0.7 0 0-0.1 0.2 0 0.3z"/><path class="j" d="m733.4 196.5q-1.8 0.4-3.6 0.8-1.8 0.4-3.6 0.9c-1.2 0.3-2.3 0.8-3.5 1-1.3 0.1-2.5 0.3-3.8 0.1l-0.1-0.2c1-0.9 2.2-1.5 3.4-1.9 1.2-0.5 2.4-0.5 3.7-0.6q1.8-0.2 3.7-0.3c1.3-0.1 2.5-0.1 3.8 0 0 0 0 0.2 0 0.2z"/><path class="j" d="m733.8 213.9l-3.9 1.2c-0.6 0.2-1.2 0.6-1.9 0.6-0.6 0-1.2-0.1-2.1-0.4l-0.1-0.1c0.5-0.8 1.1-1.2 1.8-1.5 0.6-0.4 1.3-0.2 2-0.3q1.1 0 2.1 0c0.7 0.1 1.4 0.1 2.1 0.3 0 0 0 0.2 0 0.2z"/><path class="k" d="m1089.9 183c-43.4 0-78.5-35.1-78.5-78.5 0-43.4 35.1-78.5 78.5-78.5 43.4 0 78.5 35.1 78.5 78.5 0 43.4-35.1 78.5-78.5 78.5z"/><path class="l" d="m1089.9 173.4c-38.1 0-68.9-30.8-68.9-68.9 0-38.1 30.8-69 68.9-69 38.2 0 69 30.9 69 69 0 38.1-30.8 68.9-69 68.9z"/><path class="m" d="m1141.6 112.2c1.3-1.5 2-3.4 2-5.5 0-2.4-1-4.6-2.6-6.1 5.7-2.7 9.6-8.5 9.6-15.2 0-9.3-7.5-16.9-16.8-16.9-4.9 0-9.2 2.1-12.3 5.4-1-6.1-6.3-10.8-12.6-10.8q-0.2 0-0.3 0 0.2-1.4 0.3-2.8c0-9.3-7.6-16.9-16.9-16.9-5.2 0-9.9 2.4-13 6.1-1.5-1.3-3.5-2-5.7-2-5 0-9 4-9 9q0 1.1 0.2 2.1c-6.7 2.3-11.5 8.6-11.5 16-9.3 0-16.8 7.5-16.8 16.8 0 3.3 0.9 6.3 2.5 8.9-5.5 2.8-9.2 8.5-9.2 15 0 8.2 5.8 15 13.5 16.5q-0.3 1.3-0.3 2.7c0 9.3 7.6 16.9 16.9 16.9 2 0 3.9-0.4 5.7-1.1 1.4 5.4 6.3 9.3 12.1 9.3 3.5 0 6.7-1.5 9-3.9 3.1 3.2 7.4 5.2 12.2 5.2 9.3 0 16.8-7.5 16.8-16.8q0-0.1 0-0.2c2.8-0.5 5.2-2 6.9-4.1 2.7 1.9 6 3 9.6 3 9.3 0 16.8-7.5 16.8-16.8 0-5.7-2.8-10.7-7.1-13.8z"/><path class="n" d="m1127.7 71.3c-0.4-1.8-1.3-3.5-2.8-4.7-1.7-1.4-3.8-2-5.9-1.8 1.4-5.6-0.4-11.9-5.2-15.8-6.6-5.5-16.5-4.6-22 2.1-2.8 3.5-3.9 7.8-3.4 11.9-4.9-2.9-11.4-1.9-15.2 2.7q0 0.1-0.1 0.2-0.9-1-1.9-1.9c-6.6-5.5-16.5-4.5-22 2.1-3 3.7-4.1 8.5-3.3 12.9-1.8 0.3-3.6 1.3-4.9 2.9-2.9 3.5-2.4 8.8 1.2 11.7q0.8 0.7 1.7 1.1c-2.4 6.1-0.7 13.3 4.6 17.7-5.5 6.6-4.6 16.5 2.1 22 2.3 1.9 5 3 7.8 3.4-1.2 5.5 0.6 11.5 5.3 15.4 5.8 4.8 14.1 4.7 19.7 0.1q0.8 1 1.8 1.8c6.7 5.5 16.5 4.6 22-2.1 1.2-1.4 2.1-3 2.6-4.7 4.7 2.2 10.4 1 13.8-3.1 2.1-2.6 2.9-5.8 2.6-8.8 4.1-0.3 8.1-2.2 10.9-5.6 5.5-6.7 4.5-16.5-2.1-22q-0.1-0.1-0.1-0.1c1.2-2.3 1.6-4.9 1-7.3 3-0.8 5.8-2.6 7.9-5.1 5.5-6.7 4.6-16.5-2.1-22-4.1-3.3-9.3-4.3-14-3z"/><path class="o" d="m1069.2 91.6c-5.4 2.2-11.6-0.3-13.9-5.8-2.2-5.4 0.3-11.6 5.8-13.8 5.4-2.3 11.6 0.3 13.8 5.7 2.2 5.4-0.3 11.6-5.7 13.9z"/><path class="o" d="m1138 117.5c-1.3 5.7-7 9.3-12.7 7.9-5.7-1.3-9.2-7-7.9-12.7 1.3-5.7 7-9.2 12.7-7.9 5.7 1.3 9.3 7 7.9 12.7z"/><path class="o" d="m1069.4 117.1c-3.3 0-6-2.7-6-6 0-3.4 2.7-6.1 6-6.1 3.4 0 6.1 2.7 6.1 6.1 0 3.3-2.7 6-6.1 6z"/><path class="o" d="m1113.4 105.1c-0.9 3.8-4.7 6.2-8.6 5.3-3.8-0.8-6.2-4.7-5.3-8.5 0.9-3.8 4.7-6.2 8.5-5.3 3.9 0.8 6.3 4.7 5.4 8.5z"/><path class="o" d="m1102.9 135.6c-4.2 0-7.6-3.4-7.6-7.6 0-4.2 3.4-7.6 7.6-7.6 4.2 0 7.6 3.4 7.6 7.6 0 4.2-3.4 7.6-7.6 7.6z"/><path class="o" d="m1089.4 106.6c-3.8 1.7-8.3-0.1-9.9-4-1.6-3.9 0.2-8.3 4.1-9.9 3.8-1.7 8.3 0.1 9.9 4 1.6 3.9-0.2 8.3-4.1 9.9z"/><path class="o" d="m1080.3 146.9c-5.9 0-10.6-4.7-10.6-10.6 0-5.9 4.7-10.6 10.6-10.6 5.8 0 10.6 4.7 10.6 10.6 0 5.9-4.8 10.6-10.6 10.6z"/><path class="o" d="m1124.6 93.1c-5.9 0-10.6-4.7-10.6-10.6 0-5.9 4.7-10.6 10.6-10.6 5.8 0 10.6 4.7 10.6 10.6 0 5.9-4.8 10.6-10.6 10.6z"/><path class="o" d="m1106.1 76.3c-1.1 4.7-5.9 7.7-10.6 6.6-4.7-1.2-7.7-5.9-6.6-10.6 1.2-4.8 5.9-7.7 10.6-6.6 4.8 1.1 7.7 5.9 6.6 10.6z"/><path class="k" d="m1284.3 169.5c-29.5 0-53.4-23.8-53.4-53.4 0-29.5 23.9-53.4 53.4-53.4 29.5 0 53.4 23.9 53.4 53.4 0 29.6-23.9 53.4-53.4 53.4z"/><path class="l" d="m1315.6 147.4c-17.3 17.4-45.3 17.4-62.6 0-17.3-17.3-17.3-45.3 0-62.6 17.3-17.3 45.3-17.3 62.6 0 17.3 17.3 17.3 45.3 0 62.6z"/><path class="p" d="m1309.3 137c1.2-0.4 2.2-1.2 2.9-2.4 0.8-1.3 0.9-2.8 0.5-4.1 4 0.3 8-1.6 10.2-5.3 2.9-5.1 1.2-11.6-3.9-14.6-2.6-1.5-5.7-1.8-8.4-1 1.4-3.6 0.1-7.9-3.4-9.9q-0.1-0.1-0.2-0.1 0.6-0.7 1.1-1.5c2.9-5.1 1.2-11.6-3.8-14.6-2.9-1.6-6.2-1.8-9.1-0.8-0.4-1.2-1.3-2.3-2.5-3-2.7-1.6-6.2-0.7-7.8 2.1q-0.3 0.6-0.5 1.2c-4.4-0.9-9.1 1-11.5 5.1-5-3-11.6-1.3-14.6 3.8-1 1.8-1.5 3.7-1.4 5.6-3.9-0.2-7.7 1.7-9.8 5.3-2.7 4.4-1.7 10 2 13.3q-0.5 0.7-1 1.4c-2.9 5.1-1.2 11.7 3.8 14.6q1.7 1 3.5 1.3c-0.9 3.4 0.5 7.1 3.6 9 2 1.1 4.2 1.3 6.2 0.7 0.7 2.8 2.4 5.2 5 6.8 5.1 3 11.6 1.3 14.6-3.8q0-0.1 0.1-0.1c1.6 0.6 3.4 0.5 5-0.1 0.9 1.9 2.4 3.6 4.3 4.7 5.1 3 11.6 1.3 14.6-3.8 1.8-3.1 1.9-6.7 0.5-9.8z"/><path class="q" d="m1304.3 123.7c-3.9 0-7.2-3.3-7.2-7.2 0-4 3.3-7.2 7.2-7.2 4 0 7.3 3.2 7.3 7.2 0 3.9-3.3 7.2-7.3 7.2z"/><path class="q" d="m1280.5 101.4c-3.9 0-7.2-3.3-7.2-7.3 0-3.9 3.3-7.2 7.2-7.2 4 0 7.2 3.3 7.2 7.3 0 3.9-3.2 7.2-7.2 7.2z"/><path class="q" d="m1286.1 114.9c-4 0-7.2-3.2-7.2-7.2 0-4 3.2-7.2 7.2-7.2 4 0 7.2 3.2 7.2 7.2 0 4-3.2 7.2-7.2 7.2z"/><path class="q" d="m1275.2 111.5c-2.7 2.9-7.3 3-10.1 0.3-2.9-2.8-3-7.3-0.3-10.2 2.7-2.9 7.3-3 10.2-0.3 2.9 2.8 3 7.3 0.2 10.2z"/><path class="q" d="m1271.5 124.9c-0.6 4-4.3 6.7-8.2 6.1-3.9-0.5-6.7-4.2-6.1-8.1 0.6-4 4.2-6.7 8.2-6.1 3.9 0.6 6.6 4.2 6.1 8.1z"/><path class="q" d="m1309 135.6c-2 3.4-6.4 4.6-9.9 2.6-3.4-2.1-4.5-6.5-2.5-9.9 2-3.4 6.4-4.6 9.8-2.6 3.5 2.1 4.6 6.5 2.6 9.9z"/><path class="q" d="m1299.2 108.7c-4 0-7.2-3.2-7.2-7.2 0-4 3.2-7.2 7.2-7.2 4 0 7.2 3.2 7.2 7.2 0 4-3.2 7.2-7.2 7.2z"/><path class="q" d="m1283.3 131.1c-4 0-7.2-3.2-7.2-7.2 0-4 3.2-7.2 7.2-7.2 4 0 7.2 3.2 7.2 7.2 0 4-3.2 7.2-7.2 7.2z"/><path class="q" d="m1290.3 146c-4 0-7.2-3.2-7.2-7.2 0-4 3.2-7.2 7.2-7.2 4 0 7.2 3.2 7.2 7.2 0 4-3.2 7.2-7.2 7.2z"/><path class="q" d="m1275.4 146c-3.9 0-7.2-3.2-7.2-7.2 0-4 3.3-7.2 7.2-7.2 4 0 7.2 3.2 7.2 7.2 0 4-3.2 7.2-7.2 7.2z"/><path class="r" d="m1278.9 116.3c-1.5 2.5-4.7 3.4-7.3 1.9-2.5-1.4-3.4-4.7-1.9-7.2 1.4-2.5 4.7-3.4 7.2-2 2.6 1.5 3.4 4.7 2 7.3z"/><path class="s" d="m1288.2 121.6c-2.9 0.8-5.8-0.9-6.5-3.7-0.8-2.9 0.9-5.8 3.7-6.5 2.8-0.8 5.7 0.9 6.5 3.7 0.8 2.8-0.9 5.7-3.7 6.5z"/><path class="r" d="m1293.3 130.1c-2.9 0-5.3-2.4-5.3-5.3 0-2.9 2.4-5.3 5.3-5.3 2.9 0 5.3 2.4 5.3 5.3 0 2.9-2.4 5.3-5.3 5.3z"/><path class="s" d="m1266.9 131.6c-3 0-5.3-2.4-5.3-5.3 0-2.9 2.3-5.3 5.3-5.3 2.9 0 5.3 2.4 5.3 5.3 0 2.9-2.4 5.3-5.3 5.3z"/><path class="s" d="m1271.3 104.2c-1.4 2.6-4.6 3.5-7.2 2.1-2.5-1.4-3.5-4.6-2.1-7.2 1.4-2.6 4.7-3.5 7.2-2.1 2.6 1.4 3.5 4.6 2.1 7.2z"/><path class="r" d="m1258.4 119.6c-2.9 0-5.3-2.4-5.3-5.3 0-3 2.4-5.3 5.3-5.3 3 0 5.3 2.3 5.3 5.3 0 2.9-2.3 5.3-5.3 5.3z"/><path class="r" d="m1280 108.6c-2.9 0-5.3-2.3-5.3-5.3 0-2.9 2.4-5.3 5.3-5.3 2.9 0 5.3 2.4 5.3 5.3 0 3-2.4 5.3-5.3 5.3z"/><path class="s" d="m1289.5 98.5c-3 0-5.3-2.3-5.3-5.3 0-2.9 2.3-5.3 5.3-5.3 2.9 0 5.3 2.4 5.3 5.3 0 3-2.4 5.3-5.3 5.3z"/><path class="r" d="m1297.3 108.8c-1.6 2.5-4.8 3.3-7.3 1.7-2.5-1.5-3.3-4.8-1.8-7.3 1.6-2.5 4.8-3.2 7.3-1.7 2.5 1.5 3.3 4.8 1.8 7.3z"/><path class="r" d="m1302.4 120.6c-2.9 0-5.3-2.4-5.3-5.3 0-2.9 2.4-5.3 5.3-5.3 2.9 0 5.3 2.4 5.3 5.3 0 2.9-2.4 5.3-5.3 5.3z"/><path class="r" d="m1307.4 130.8c-3 0-5.3-2.3-5.3-5.3 0-2.9 2.3-5.3 5.3-5.3 2.9 0 5.3 2.4 5.3 5.3 0 3-2.4 5.3-5.3 5.3z"/><path class="s" d="m1295.8 142.4c-3 0-5.3-2.4-5.3-5.3 0-2.9 2.3-5.3 5.3-5.3 2.9 0 5.3 2.4 5.3 5.3 0 2.9-2.4 5.3-5.3 5.3z"/><path class="r" d="m1284.1 145.8c-2.9 0-5.3-2.4-5.3-5.3 0-2.9 2.4-5.3 5.3-5.3 2.9 0 5.3 2.4 5.3 5.3 0 2.9-2.4 5.3-5.3 5.3z"/><path class="r" d="m1279.5 131.9c-3 0-5.3-2.4-5.3-5.3 0-2.9 2.3-5.3 5.3-5.3 2.9 0 5.3 2.4 5.3 5.3 0 2.9-2.4 5.3-5.3 5.3z"/><path class="r" d="m1271.8 142.7c-2.9 0-5.3-2.4-5.3-5.3 0-2.9 2.4-5.3 5.3-5.3 3 0 5.3 2.4 5.3 5.3 0 2.9-2.3 5.3-5.3 5.3z"/><path class="r" d="m1363.5 126.9c-3.5 0-6.2-2.7-6.2-6.2 0-3.4 2.7-6.2 6.2-6.2 3.4 0 6.1 2.8 6.1 6.2 0 3.5-2.7 6.2-6.1 6.2z"/><path class="r" d="m1354.9 95.8c-3.5 0-6.2-2.7-6.2-6.2 0-3.4 2.7-6.2 6.2-6.2 3.4 0 6.1 2.8 6.1 6.2 0 3.5-2.7 6.2-6.1 6.2z"/><path class="q" d="m1378 105.4c-3.4 0-6.2-2.8-6.2-6.2 0-3.4 2.8-6.2 6.2-6.2 3.4 0 6.2 2.8 6.2 6.2 0 3.4-2.8 6.2-6.2 6.2z"/><path class="q" d="m1354.3 151.5c-2.4 2.4-6.3 2.5-8.8 0.2-2.4-2.4-2.5-6.3-0.2-8.8 2.4-2.5 6.3-2.6 8.8-0.2 2.5 2.4 2.5 6.3 0.2 8.8z"/><path class="q" d="m1386.7 143.8c-3.5 0-6.2-2.7-6.2-6.2 0-3.4 2.7-6.1 6.2-6.1 3.4 0 6.1 2.7 6.1 6.1 0 3.5-2.7 6.2-6.1 6.2z"/><path class="k" d="m922.1 148.4c-20.9 20.9-54.7 20.9-75.6 0-20.9-20.9-20.9-54.6 0-75.5 20.9-20.9 54.7-20.9 75.6 0 20.8 20.9 20.8 54.6 0 75.5z"/><path class="l" d="m895.3 153.6c-23.8 6.1-47.9-8.2-53.9-31.9-6.1-23.8 8.2-47.8 31.9-53.9 23.8-6 47.9 8.2 53.9 32 6.1 23.7-8.2 47.8-31.9 53.8z"/><path class="t" d="m904.4 85c-0.5-1.2-1.3-2.2-2.5-2.8-1.3-0.7-2.8-0.9-4.2-0.4 0.2-4-1.8-8-5.5-10-5.2-2.8-11.7-0.9-14.5 4.3-1.4 2.7-1.6 5.7-0.7 8.4-3.7-1.3-7.9 0.2-9.9 3.8q0 0.1 0 0.1-0.7-0.5-1.5-1c-5.2-2.8-11.7-0.9-14.5 4.3-1.6 2.9-1.7 6.2-0.6 9.1-1.2 0.4-2.2 1.3-2.9 2.5-1.5 2.8-0.5 6.3 2.3 7.8q0.6 0.3 1.3 0.5c-0.8 4.4 1.2 9 5.4 11.2-2.8 5.2-0.9 11.7 4.2 14.5 1.9 1 3.8 1.4 5.8 1.3-0.1 3.9 1.9 7.7 5.5 9.7 4.5 2.5 10.1 1.3 13.3-2.5q0.7 0.5 1.4 1c5.2 2.8 11.7 0.9 14.5-4.3q0.9-1.7 1.2-3.5c3.4 0.8 7-0.7 8.8-3.9 1.1-2 1.2-4.2 0.6-6.2 2.7-0.8 5.1-2.5 6.6-5.2 2.8-5.2 0.9-11.7-4.3-14.5q0 0-0.1 0c0.6-1.7 0.5-3.5-0.2-5.1 1.9-0.9 3.5-2.4 4.6-4.4 2.8-5.2 0.9-11.7-4.3-14.5-3.1-1.7-6.8-1.7-9.8-0.2z"/><path class="u" d="m891.1 91.9c-0.7 3.9-4.5 6.5-8.4 5.8-3.9-0.7-6.5-4.5-5.8-8.4 0.7-3.9 4.4-6.5 8.4-5.8 3.9 0.7 6.5 4.4 5.8 8.4z"/><path class="u" d="m868.4 119.1c-2.3 3.3-6.7 4.1-10 1.9-3.3-2.2-4.2-6.7-1.9-10 2.2-3.3 6.7-4.2 10-1.9 3.2 2.2 4.1 6.7 1.9 10z"/><path class="u" d="m877.8 115.9c-3.8 1.2-7.8-1-8.9-4.8-1.1-3.8 1-7.8 4.9-9 3.8-1.1 7.8 1.1 8.9 4.9 1.1 3.8-1.1 7.8-4.9 8.9z"/><path class="u" d="m877.1 132.1c-3.8 1-7.8-1.2-8.8-5-1.1-3.9 1.2-7.8 5-8.9 3.9-1 7.8 1.2 8.9 5 1 3.9-1.2 7.8-5.1 8.9z"/><path class="u" d="m899.7 131.6c-0.6 4-4.4 6.6-8.3 5.9-3.9-0.6-6.5-4.3-5.9-8.2 0.7-4 4.4-6.6 8.3-6 3.9 0.7 6.6 4.4 5.9 8.3z"/><path class="u" d="m906.1 94.6c-1.5 3.6-5.7 5.3-9.4 3.8-3.7-1.6-5.4-5.8-3.8-9.4 1.5-3.7 5.7-5.4 9.4-3.9 3.7 1.6 5.4 5.8 3.8 9.5z"/><path class="u" d="m876 98.4c-1.2 3.8-5.2 5.9-9 4.6-3.8-1.2-5.9-5.2-4.7-9 1.3-3.8 5.3-5.9 9.1-4.6 3.8 1.2 5.9 5.2 4.6 9z"/><path class="u" d="m893.6 118.4c-3.9 0.8-7.7-1.7-8.6-5.6-0.8-3.9 1.7-7.7 5.6-8.5 3.9-0.8 7.7 1.7 8.5 5.6 0.8 3.9-1.6 7.7-5.5 8.5z"/><path class="u" d="m914 104.4c-0.2 4-3.6 7-7.6 6.7-4-0.2-7-3.6-6.7-7.6 0.2-3.9 3.6-7 7.6-6.7 3.9 0.2 7 3.6 6.7 7.6z"/><path class="u" d="m913.1 123c-2.3 3.2-6.8 4-10 1.7-3.3-2.3-4-6.8-1.7-10.1 2.3-3.2 6.7-4 10-1.7 3.2 2.3 4 6.8 1.7 10.1z"/><path class="v" d="m882.1 126c-2.9 0-5.3-2.3-5.3-5.3 0-2.9 2.4-5.3 5.3-5.3 3 0 5.3 2.4 5.3 5.3 0 3-2.3 5.3-5.3 5.3z"/><path class="v" d="m884.5 113.5c-2.9 0-5.3-2.4-5.3-5.3 0-3 2.4-5.3 5.3-5.3 2.9 0 5.3 2.3 5.3 5.3 0 2.9-2.4 5.3-5.3 5.3z"/><path class="v" d="m895.2 96.7c2.6 1.4 3.5 4.6 2.1 7.2-1.4 2.6-4.6 3.5-7.2 2.1-2.5-1.4-3.5-4.6-2.1-7.2 1.4-2.6 4.7-3.5 7.2-2.1z"/><path class="v" d="m895 133.1c-2.9 0-5.3-2.4-5.3-5.3 0-3 2.4-5.4 5.3-5.4 2.9 0 5.3 2.4 5.3 5.4 0 2.9-2.4 5.3-5.3 5.3z"/><path class="v" d="m874.1 132.5c-2 2.1-5.4 2.1-7.5 0.1-2.1-2.1-2.1-5.4-0.1-7.5 2.1-2.1 5.4-2.1 7.5-0.1 2.1 2 2.2 5.4 0.1 7.5z"/><path class="v" d="m883.2 141.9c-2.9 0-5.3-2.4-5.3-5.3 0-3 2.4-5.3 5.3-5.3 3 0 5.3 2.3 5.3 5.3 0 2.9-2.3 5.3-5.3 5.3z"/><path class="v" d="m871.6 120.6c-2.9 0-5.3-2.3-5.3-5.3 0-2.9 2.4-5.3 5.3-5.3 3 0 5.3 2.4 5.3 5.3 0 3-2.3 5.3-5.3 5.3z"/><path class="v" d="m865.6 109.2c-1.6 2.4-4.9 3-7.3 1.4-2.5-1.7-3.1-5-1.4-7.4 1.6-2.4 4.9-3.1 7.3-1.4 2.4 1.6 3.1 4.9 1.4 7.4z"/><path class="v" d="m874 107.7c-3 0-5.3-2.3-5.3-5.3 0-2.9 2.3-5.3 5.3-5.3 2.9 0 5.3 2.4 5.3 5.3 0 3-2.4 5.3-5.3 5.3z"/><path class="v" d="m882.9 97.9c-2.9 0-5.3-2.4-5.3-5.3 0-2.9 2.4-5.3 5.3-5.3 3 0 5.3 2.4 5.3 5.3 0 2.9-2.3 5.3-5.3 5.3z"/><path class="v" d="m893 92.6c-3 0-5.3-2.4-5.3-5.3 0-3 2.3-5.3 5.3-5.3 2.9 0 5.3 2.3 5.3 5.3 0 2.9-2.4 5.3-5.3 5.3z"/><path class="v" d="m906.4 103.6c-2.8 0.8-5.8-0.8-6.6-3.6-0.8-2.8 0.8-5.8 3.6-6.6 2.8-0.8 5.8 0.8 6.6 3.6 0.8 2.8-0.8 5.8-3.6 6.6z"/><path class="v" d="m910.2 115.1c-2.8 0.9-5.8-0.7-6.6-3.5-0.9-2.8 0.7-5.8 3.5-6.6 2.8-0.8 5.8 0.7 6.6 3.5 0.9 2.9-0.7 5.8-3.5 6.6z"/><path class="v" d="m896.4 120.2c-2.8 0.8-5.7-0.8-6.6-3.6-0.8-2.8 0.8-5.8 3.6-6.6 2.8-0.8 5.8 0.8 6.6 3.6 0.8 2.8-0.8 5.8-3.6 6.6z"/><path class="v" d="m907.7 127.5c-2.7 1-5.8-0.5-6.7-3.2-1-2.8 0.4-5.8 3.2-6.8 2.7-1 5.8 0.5 6.7 3.2 1 2.8-0.4 5.8-3.2 6.8z"/><path class="v" d="m797.5 158.8c-3.5 0-6.2-2.8-6.2-6.2 0-3.4 2.7-6.2 6.2-6.2 3.4 0 6.1 2.8 6.1 6.2 0 3.4-2.7 6.2-6.1 6.2z"/><path class="v" d="m764.6 142.2c-3.4 0-6.2-2.8-6.2-6.2 0-3.4 2.8-6.2 6.2-6.2 3.4 0 6.2 2.8 6.2 6.2 0 3.4-2.8 6.2-6.2 6.2z"/><path class="u" d="m797 133.3c-1.3 3.2-5 4.7-8.1 3.4-3.2-1.3-4.7-4.9-3.4-8.1 1.3-3.2 5-4.7 8.1-3.4 3.2 1.4 4.7 5 3.4 8.1z"/><path class="u" d="m808.9 180.8c-3.3 0.8-6.6-1.2-7.4-4.6-0.8-3.3 1.3-6.6 4.6-7.4 3.3-0.8 6.7 1.2 7.4 4.6 0.8 3.3-1.2 6.6-4.6 7.4z"/><path class="u" d="m822.1 145.8c-3.4 0-6.2-2.7-6.2-6.2 0-3.4 2.8-6.2 6.2-6.2 3.4 0 6.2 2.8 6.2 6.2 0 3.5-2.8 6.2-6.2 6.2z"/><path class="u" d="m774.5 174.7c-3.4 0-6.2-2.8-6.2-6.2 0-3.5 2.8-6.2 6.2-6.2 3.4 0 6.2 2.7 6.2 6.2 0 3.4-2.8 6.2-6.2 6.2z"/><path class="w" d="m525.9 134.5q-0.1-0.1-0.1-0.3c-0.4-1.2 0.1-2.5 1.2-3.2q0.6-0.4 1.1-0.8 1.8-1.1 3.6-2.2 4.3-2.5 8.9-4.7 2.3-1.1 4.7-2.1 0 0 0 0 1.1-0.5 2.3-0.9 0.1-0.1 0.2-0.1 1.1-0.4 2.3-0.9c1-0.4 2-0.7 3.1-1 1-0.3 2.1-0.7 3.2-1 2.1-0.5 4.2-1.1 6.4-1.5 2.2-0.5 4.4-0.8 6.7-1.1 2.2-0.2 4.4-0.5 6.7-0.6 9-0.4 18.2 0.5 27.2 2.8 4.5 1.1 8.9 2.6 13.2 4.4q3.3 1.3 6.5 3 1.6 0.8 3.2 1.7 0.8 0.5 1.6 1 0.4 0.2 0.9 0.5 0.2 0.2 0.4 0.3l0.3 0.2 0.1 0.1 0.2 0.2c3.2 2.6 4.7 6.6 4.3 10.4-0.2 2.3-1.1 4.5-2.7 6.4-4.2 5.1-11.8 5.8-16.9 1.6h0.1q0 0 0 0l-0.1-0.1c0 0-0.1-0.1-0.1-0.1-0.2-0.2-0.3-0.3-0.4-0.4q-0.5-0.4-0.9-0.8-1-0.9-2-1.7-2.1-1.6-4.4-3.1c-3-2-6.2-3.7-9.6-5.3-6.7-3.1-13.9-5.2-21.4-6.2-1.9-0.3-3.8-0.4-5.7-0.6-1.9 0-3.8-0.2-5.7-0.1-2 0-3.9 0.2-5.8 0.3-1 0.1-2 0.2-2.9 0.3-1 0.1-2 0.2-3 0.4-7.7 1.3-15.4 3.6-22.9 6.7-1.5 0.7-3.2 0-3.8-1.5z"/><path class="x" d="m525.8 134.2c-0.4-1.2 0.1-2.5 1.2-3.2q0.6-0.4 1.1-0.8 1.8-1.1 3.6-2.2 4.3-2.5 8.9-4.7 2.3-1.1 4.7-2.1 0 0 0 0 1.1-0.5 2.3-0.9 0.1-0.1 0.2-0.1 1.1-0.4 2.3-0.8c1-0.4 2-0.8 3.1-1.1 1-0.3 2.1-0.7 3.2-0.9 2.1-0.6 4.2-1.2 6.4-1.6 2.2-0.5 4.4-0.7 6.7-1.1 2.2-0.2 4.4-0.5 6.7-0.5 9-0.5 18.2 0.4 27.2 2.7 4.5 1.1 8.9 2.6 13.2 4.4q3.3 1.3 6.5 3 1.6 0.8 3.2 1.7 0.8 0.5 1.6 1 0.4 0.3 0.9 0.5 0.2 0.2 0.4 0.3l0.3 0.2 0.1 0.1 0.2 0.2c3.2 2.6 4.7 6.6 4.3 10.4q-0.4 0.7-0.9 1.3c-4.3 5.1-11.8 5.8-16.9 1.6q0.1 0 0 0v-0.1c0 0-0.1-0.1-0.2-0.1q-0.2-0.2-0.4-0.4-0.4-0.4-0.9-0.8-0.9-0.9-2-1.7c-1.4-1-2.8-2.1-4.3-3.1-3.1-2-6.3-3.7-9.6-5.3-6.7-3-14-5.2-21.5-6.2-1.9-0.3-3.7-0.4-5.7-0.6-1.9 0-3.8-0.2-5.7-0.1-1.9 0-3.9 0.2-5.8 0.3-1 0.1-1.9 0.2-2.9 0.3-1 0.1-2 0.2-2.9 0.4-7.8 1.3-15.5 3.6-22.9 6.7h-0.1c0 0 0 0.1 0 0.1-0.5 0.1-2.6 1-5.6 3.2z"/><path class="y" d="m651.4 166.5q0.1-0.3 0.2-0.5c0.1-0.3 0.1-0.8 0-1.3q-0.1-0.4-0.3-0.9-0.1-0.4-0.4-0.8c-0.6-1.2-1.4-2.3-2.3-3.3-1.9-2.1-4-4-6.3-5.7-2.5-1.9-5.2-3.8-8-5.2-2.3-1.1-4.4-0.7-6.8-0.2-0.3 0.1-0.6 0.2-0.9 0.2-1.3 0-1.5-0.7-0.8-1.9q0.7-1.1 2.4-2.7c0.5-0.4 0.7-0.9 0.7-1.3 0-1.2-1.1-2.4-0.6-3q0.1-0.1 0.4-0.1c0.8 0 2.4 0.5 3.4-1.8 0.9-2.1 2.1-3.7 2.5-2.8 0.1 0.4-0.1 1.3-0.1 1.8q0 0.9 0.1 1.8c0.2 1.6 0.9 3 1.7 4.1 1.1 1.6 2.6 2.9 4.1 4.3 1.4 1.4 2.9 2.8 4.2 4.2 2 2.2 4 4.3 5.9 6.6 1 1.1 1.9 2.3 2.7 3.6 0.2 0.3 0.4 0.7 0.6 1q0.3 0.6 0.5 1.2c0.3 0.8 0.6 1.8 0.4 2.9v0.2q0 0.3-0.2 0.6c-0.3 0.6-0.9 0.9-1.6 0.8-0.9-0.1-1.6-0.9-1.5-1.8z"/><path class="z" d="m652.6 165.6q0.1-0.3 0.2-0.5c0.1-0.3 0.2-0.8 0-1.3q-0.1-0.4-0.3-0.8c-0.1-0.3-0.2-0.6-0.4-0.9-0.6-1.2-1.5-2.3-2.4-3.3-2-2.1-4.2-4-6.5-5.8-2.6-1.9-5.3-3.8-8.3-5.2-2.4-1.2-4.5-0.8-6.9-0.3q-0.5 0.1-0.9 0.1-1.2 0.1-1.3-0.7 0.7-1.1 2.5-2.7 0.5-0.5 0.6-1.2 0-0.1 0-0.1-0.1 0-0.1-0.1c-0.4-0.1-0.7-0.3-0.8-0.6-0.1-0.2-0.2-0.5-0.2-0.8 0-0.4 0-0.8 0.1-1.2 0.1-0.2 0.1-0.4 0.3-0.5 0.2-0.2 0.6 0 0.8 0 0.4 0.1 0.8 0.1 1.2 0.1 0.9-0.2 1.5-1 1.9-1.8 0.9-2.1 2.1-3.7 2.5-2.8 0.1 0.4-0.1 1.3-0.1 1.8q0 0.9 0.1 1.8c0.3 1.6 0.9 3 1.7 4.1 1.1 1.6 2.6 2.9 4.1 4.3 1.4 1.4 2.9 2.8 4.2 4.2 2 2.1 4 4.3 5.9 6.6 1 1.1 1.9 2.3 2.7 3.6 0.2 0.3 0.4 0.7 0.6 1q0.3 0.6 0.5 1.2c0.3 0.8 0.6 1.8 0.4 2.9v0.2q0 0.3-0.2 0.6-0.2 0-0.4 0c-0.9-0.2-1.6-1-1.4-1.9z"/><path class="A" d="m629.2 136.3c-2 1.4-2.8 1.4-3.4 1.1q-1-0.3-1.9-0.8-0.8-0.5-1.6-1.2-0.8-0.6-1.6-1.2c-2.3-1.4-4.5-3.1-6.8-4.5-1.1-0.7-2.3-1.4-3.5-2.1-0.6-0.3-1.2-0.6-1.8-1q-0.9-0.5-1.8-0.9c-2.5-1.3-5.1-2.3-7.7-3.3h-0.1c-0.2-0.1-0.2-0.3-0.2-0.5 0.1-0.1 0.2-0.2 0.4-0.2 2.8-0.1 5.8 0 8.7 0.6q1.1 0.1 2.1 0.4c0.8 0.1 1.5 0.3 2.2 0.5 1.4 0.4 2.8 0.8 4.2 1.3 2.8 1 5.6 2 8.1 3.6 1.3 0.8 2.6 1.4 3.8 2.3q0.9 0.7 1.5 1.7c0.5 0.6 0.8 1.4-0.1 3.7q-0.2 0.3-0.4 0.5l-0.1 0.1z"/><path class="w" d="m589.8 101q0-0.1 0-0.3c0.1-0.9 0.9-1.7 1.8-1.8q0.5-0.1 1-0.2 1.5-0.3 3.1-0.5 3.7-0.4 7.5-0.6 1.9-0.1 3.8 0 0 0 0 0 0.9 0 1.8 0 0.1 0 0.2 0 0.9 0.1 1.8 0.1c0.8 0 1.7 0.1 2.5 0.2 0.8 0.1 1.6 0.2 2.4 0.3 1.7 0.3 3.3 0.5 4.9 0.9 1.6 0.3 3.3 0.7 4.9 1.2 1.6 0.5 3.2 0.9 4.8 1.6 6.3 2.3 12.3 5.7 17.8 9.9q4.1 3.1 7.8 6.9 1.8 1.9 3.5 3.9 0.9 1.1 1.7 2.2 0.4 0.5 0.8 1.1 0.2 0.3 0.4 0.6 0.1 0.2 0.3 0.4l0.1 0.2v0.1l0.1 0.1c1.4 2.8 1.3 6-0.1 8.5-0.9 1.5-2.1 2.7-3.8 3.6-4.3 2.2-9.7 0.5-12-3.9q0.1 0 0 0v-0.1c0 0 0 0 0-0.1q-0.1-0.2-0.2-0.4-0.2-0.4-0.4-0.8-0.4-0.9-0.9-1.7-0.9-1.8-2-3.4c-1.5-2.3-3.2-4.5-5-6.5-3.7-4.1-8-7.7-12.9-10.6-1.2-0.8-2.4-1.4-3.7-2.1-1.3-0.6-2.6-1.2-3.9-1.7-1.3-0.6-2.7-1.1-4.1-1.6-0.6-0.2-1.4-0.4-2.1-0.6-0.7-0.2-1.4-0.4-2.1-0.6-5.6-1.4-11.6-2.1-17.7-2.1-1.2 0-2.1-1-2.1-2.2z"/><path class="x" d="m589.8 100.7c0.1-0.9 0.9-1.7 1.8-1.8q0.5-0.1 1-0.2 1.5-0.3 3.1-0.5 3.7-0.4 7.5-0.6 1.9 0 3.8 0 0 0 0 0 0.9 0 1.8 0 0.1 0 0.2 0 0.9 0.1 1.8 0.1c0.8 0 1.7 0.1 2.5 0.2 0.8 0.1 1.6 0.2 2.4 0.3 1.7 0.3 3.3 0.5 4.9 0.9 1.6 0.3 3.3 0.7 4.9 1.2 1.6 0.5 3.2 0.9 4.8 1.6 6.3 2.3 12.3 5.7 17.8 9.9q4.1 3.1 7.8 6.9 1.8 1.9 3.5 3.9 0.9 1.1 1.7 2.2 0.4 0.5 0.8 1.1 0.2 0.3 0.4 0.6 0.1 0.2 0.3 0.4l0.1 0.2v0.1l0.1 0.1c1.4 2.8 1.3 6-0.1 8.5q-0.5 0.3-1 0.6c-4.4 2.2-9.8 0.5-12.1-3.9h0.1q0 0 0 0h-0.1c0 0 0-0.1 0-0.2q-0.1-0.2-0.2-0.4-0.2-0.4-0.4-0.8-0.4-0.8-0.8-1.7-1-1.7-2.1-3.4-2.2-3.4-5-6.5c-3.7-4.1-8-7.7-12.9-10.6-1.2-0.7-2.4-1.4-3.7-2-1.3-0.6-2.6-1.3-3.9-1.8-1.3-0.6-2.7-1-4-1.5q-1.1-0.4-2.1-0.7c-0.7-0.2-1.4-0.4-2.1-0.5-5.7-1.5-11.7-2.2-17.7-2.2q-0.1 0-0.1 0c-0.3 0-2.1-0.1-4.8 0.5z"/><path class="y" d="m666.3 159.9q0.1-0.2 0.3-0.3c0.2-0.1 0.3-0.5 0.4-0.9q0.1-0.3 0.1-0.6 0-0.4-0.1-0.7c0-1-0.3-2-0.6-3-0.7-2-1.6-3.9-2.6-5.7-1.2-2.1-2.4-4.1-4-5.9-1.3-1.5-2.8-1.8-4.6-2.1q-0.3-0.1-0.6-0.2c-0.9-0.3-0.9-0.9 0-1.5q0.8-0.6 2.4-1.2c0.5-0.1 0.7-0.4 0.8-0.7 0.4-0.8 0-1.9 0.5-2.2q0.1-0.1 0.4 0c0.5 0.3 1.4 1.1 2.8-0.2 1.2-1.1 2.5-1.9 2.5-1.1 0 0.3-0.4 0.8-0.6 1.1q-0.2 0.7-0.4 1.3c-0.3 1.2-0.3 2.3-0.1 3.4 0.3 1.4 1 2.7 1.5 4.1 0.6 1.4 1.2 2.7 1.7 4.1 0.8 2.1 1.5 4.1 2.1 6.2 0.3 1.1 0.6 2.2 0.8 3.3 0 0.3 0.1 0.6 0.1 0.9q0 0.5 0 1c0 0.6-0.2 1.3-0.6 2.1l-0.1 0.1q-0.1 0.2-0.3 0.3c-0.4 0.3-0.9 0.4-1.3 0.1-0.6-0.3-0.8-1.1-0.5-1.7z"/><path class="z" d="m667.4 159.7q0.1-0.2 0.3-0.3c0.1-0.1 0.3-0.5 0.4-0.9q0-0.3 0.1-0.7 0-0.3-0.1-0.7c-0.1-1-0.3-2-0.7-3-0.7-2-1.7-3.9-2.7-5.8-1.3-2.1-2.5-4.2-4.2-6.1-1.2-1.4-2.8-1.8-4.6-2.2q-0.4-0.1-0.7-0.2c-0.5-0.2-0.8-0.5-0.6-0.8q0.8-0.6 2.4-1.2 0.6-0.2 0.8-0.6 0-0.1 0-0.1 0 0 0 0c-0.2-0.2-0.4-0.4-0.4-0.7 0-0.1 0-0.5 0.2-0.6 0.1-0.3 0.2-0.6 0.4-0.8 0.1-0.1 0.2-0.2 0.3-0.3 0.2 0 0.4 0.2 0.6 0.3q0.3 0.3 0.8 0.4c0.7 0.1 1.3-0.2 1.8-0.7 1.2-1.1 2.5-1.8 2.5-1.1 0 0.3-0.4 0.9-0.5 1.1q-0.3 0.7-0.5 1.4c-0.3 1.1-0.3 2.2-0.1 3.3 0.3 1.4 1 2.7 1.5 4.1 0.6 1.4 1.2 2.7 1.7 4.1 0.8 2.1 1.5 4.1 2.1 6.3 0.3 1 0.6 2.1 0.8 3.2 0 0.3 0.1 0.6 0.1 0.9q0 0.5 0 1c0 0.6-0.1 1.3-0.6 2.1l-0.1 0.1q-0.1 0.2-0.3 0.3-0.1 0-0.2-0.1c-0.6-0.3-0.8-1.1-0.5-1.7z"/><path class="A" d="m659.9 132.8c-2.3 0.6-2.9 0.4-3.3 0.1q-0.7-0.5-1.1-1.1c-0.6-0.8-0.9-1.7-1.5-2.5-1-1.7-2-3.4-3-5.1-0.5-0.9-1.1-1.7-1.7-2.6-0.6-0.8-1.2-1.6-1.8-2.4-1.2-1.7-2.6-3.2-4.1-4.8v-0.1c-0.1-0.1-0.1-0.3 0.1-0.5q0.1-0.1 0.3-0.1c2.1 0.7 4.2 1.6 6.1 2.7 0.9 0.6 1.9 1.2 2.8 1.8 0.9 0.7 1.8 1.4 2.6 2.1 1.7 1.5 3.4 3 4.7 4.9 0.6 0.9 1.5 1.7 2 2.7q0.4 0.8 0.4 1.7c0.2 0.6 0.1 1.3-1.8 2.9q-0.3 0.2-0.6 0.2l-0.1 0.1z"/></svg>